<svg width="350" height="350" fill="none" xmlns="http://www.w3.org/2000/svg">
    <path opacity=".07"
        d="M318.105 147.171c0 1.896-.042 3.792-.168 5.562C336.054 166.51 350 196.046 350 222.042c0 28.313-16.558 41.669-36.993 29.872-.042-.042-.084-.042-.126-.084l-128.38-74.028c-.042-.042-.084-.042-.169-.084-22.962-13.272-41.585-49.802-41.585-81.612 0-29.788 16.348-44.914 37.288-35.771 2.57-20.435 16.263-29.24 32.779-19.676 7.922 4.592 15.211 12.64 20.899 22.33 8.258-12.26 22.33-15.378 38.256-6.194 25.491 14.663 46.136 55.153 46.136 90.376z"
        fill="url(#prefix__prefix__paint0_linear_26_89)" />
    <path opacity=".4"
        d="M297.039 167.395c0 1.896-.043 3.792-.169 5.562 18.117 13.777 32.063 43.312 32.063 69.309 0 28.313-16.558 41.669-36.993 29.872-.042-.042-.084-.042-.126-.084l-128.38-74.028c-.042-.042-.084-.042-.168-.084-22.963-13.272-41.586-49.802-41.586-81.612 0-29.788 16.348-44.914 37.288-35.771 2.57-20.435 16.264-29.24 32.78-19.677 7.921 4.593 15.21 12.64 20.898 22.331 8.258-12.26 22.33-15.379 38.257-6.194 25.49 14.663 46.136 55.153 46.136 90.376z"
        fill="url(#prefix__prefix__paint1_linear_26_89)" />
    <path opacity=".2"
        d="M93.788 203.461l-19.55-11.292v-6.615l19.55 11.292c1.602.927 3.919 2.781 5.9 5.646 2.148 3.076 3.665 6.952 3.665 11.165 0 4.635-1.18 7.289-3.455 8.048-2.107.716-4.593-.506-6.152-1.391L85.7 215.68l-.042-.042c-.674-.422-1.77-.801-2.655-.548-.716.21-1.516.927-1.516 3.497s.8 4.171 1.474 5.098c.843 1.18 1.938 2.022 2.613 2.359l.084.043 24.563 14.198v6.615l-24.437-14.114c-1.685-.885-4.087-2.739-6.193-5.688-2.276-3.202-3.877-7.289-3.835-11.84 0-4.508 1.56-6.825 3.835-7.457 2.106-.59 4.508.253 6.193 1.306l7.963 4.592c1.138.675 2.023.969 2.57.759.422-.127 1.264-.759 1.264-4.129 0-2.149-.716-3.582-1.348-4.551-.758-1.095-1.811-1.938-2.444-2.317z"
        fill="#fff" />
    <path
        d="M78.452 190.526c0 5.435-3.203 8.005-7.12 5.772-3.92-2.275-7.121-8.511-7.121-13.988 0-5.435 3.202-8.005 7.12-5.772 3.918 2.275 7.12 8.553 7.12 13.988zm41.711 58.565c0 5.435-3.202 8.006-7.12 5.773-3.918-2.276-7.121-8.511-7.121-13.989 0-5.435 3.203-8.005 7.121-5.772 3.918 2.275 7.12 8.553 7.12 13.988z"
        fill="#F2994A" />
    <path opacity=".07" d="M153.828 109.125l126.357 72.932v66.866L153.786 175.99l.042-66.865z"
        fill="url(#prefix__prefix__paint2_linear_26_89)" />
    <path opacity=".3" d="M136.933 117.552l126.357 72.932v66.865l-126.357-72.932v-66.865z"
        fill="url(#prefix__prefix__paint3_linear_26_89)" />
    <path
        d="M148.266 157.367c0 5.393 3.202 11.587 7.121 13.862 3.918 2.275 7.12-.253 7.12-5.646s-3.202-11.586-7.12-13.862c-3.919-2.275-7.121.253-7.121 5.646z"
        fill="#F2994A" />
    <path opacity=".15"
        d="M166.089 167.774c0 2.486 1.475 5.393 3.328 6.447 1.812 1.053 3.287-.127 3.287-2.613 0-2.485-1.475-5.393-3.329-6.446-1.811-1.053-3.286.126-3.286 2.612zm10.154 5.857c0 2.486 1.475 5.393 3.328 6.446 1.812 1.053 3.287-.126 3.287-2.612s-1.475-5.393-3.329-6.447c-1.811-1.053-3.286.127-3.286 2.613zm55.152 11.376v38.046l-4.972-2.865v-38.046l4.972 2.865zm10.871 6.32v38.046l-4.972-2.865v-38.046l4.972 2.865zm10.912 6.32v38.046l-4.972-2.865v-38.046l4.972 2.865z"
        fill="#fff" />
    <path opacity=".07" d="M153.786 200.512l126.357 72.932v66.866l-126.357-72.933v-66.865z"
        fill="url(#prefix__prefix__paint4_linear_26_89)" />
    <path opacity=".3" d="M136.933 209.36l126.357 72.932v66.866l-126.357-72.933V209.36z"
        fill="url(#prefix__prefix__paint5_linear_26_89)" />
    <path
        d="M148.266 249.176c0 5.393 3.202 11.586 7.121 13.861 3.918 2.276 7.12-.252 7.12-5.646 0-5.393-3.202-11.586-7.12-13.861-3.919-2.275-7.121.252-7.121 5.646z"
        fill="#F2994A" />
    <path opacity=".15"
        d="M166.089 259.624c0 2.486 1.475 5.394 3.328 6.447 1.812 1.053 3.287-.127 3.287-2.612 0-2.486-1.475-5.393-3.329-6.447-1.811-1.053-3.286.084-3.286 2.612zm10.112 5.857c0 2.486 1.475 5.393 3.328 6.446 1.812 1.054 3.287-.126 3.287-2.612s-1.475-5.393-3.329-6.446c-1.811-1.096-3.286.084-3.286 2.612zm55.194 12.64v38.046l-4.972-2.865v-38.046l4.972 2.865zm10.871 6.32v38.046l-4.972-2.865v-38.046l4.972 2.865zm10.912 6.32v38.046l-4.972-2.865v-38.046l4.972 2.865z"
        fill="#fff" />
    <path opacity=".3" d="M24.732 18.497l78.747 45.461v145.907l-78.747-45.504V18.497z"
        fill="url(#prefix__prefix__paint6_linear_26_89)" />
    <path
        d="M73.354 71.332c0 7.289-4.213 10.743-9.396 7.71-5.182-3.034-9.396-11.376-9.396-18.665 0-7.29 4.214-10.744 9.396-7.71 5.183 3.033 9.396 11.375 9.396 18.665zm-9.396 13.566c-8.384-4.887-15.294-.294-16.516 10.239-.21 1.811 1.18 4.255 2.865 5.224l27.344 15.969c1.686.969 3.076.21 2.865-1.896-1.264-12.008-8.216-24.648-16.558-29.536z"
        fill="#F2C94C" />
    <path opacity=".15"
        d="M40.532 113.127l46.937 27.092v5.73l-46.937-27.091v-5.731zm4.761 14.115l37.204 21.446v5.73l-37.204-21.446v-5.73z"
        fill="#fff" />
    <path d="M54.773 151.342L0 119.7v16.306l54.773 31.642v-16.306z" fill="#F2C94C" />
    <path opacity=".2"
        d="M120.459 0l11.713 23.005c1.601 3.16 1.348 6.32-.59 7.078-1.938.759-4.803-1.222-6.404-4.382l-.127-.295V50.94c0 2.907-2.022 4.087-4.55 2.654-2.528-1.474-4.55-4.971-4.55-7.879V20.183l-.127.126c-1.601 1.306-4.508-.042-6.404-3.033-1.938-2.992-2.191-6.447-.59-7.753L120.459 0z"
        fill="url(#prefix__prefix__paint7_linear_26_89)" />
    <path opacity=".2"
        d="M120.459 339.677l-11.713-23.004c-1.601-3.16-1.349-6.32.59-7.079 1.938-.758 4.803 1.222 6.404 4.382l.126.295v-25.533c0-2.907 2.023-4.086 4.551-2.654 2.528 1.475 4.55 4.972 4.55 7.879v25.533l.126-.127c1.601-1.306 4.509.042 6.405 3.034 1.938 2.991 2.19 6.446.589 7.752l-11.628 9.522z"
        fill="url(#prefix__prefix__paint8_linear_26_89)" />
    <defs>
        <linearGradient id="prefix__prefix__paint0_linear_26_89" x1="342.463" y1="66.711" x2="212.091" y2="190.372"
            gradientUnits="userSpaceOnUse">
            <stop stop-color="#fff" />
            <stop offset="1" stop-color="#fff" stop-opacity="0" />
        </linearGradient>
        <linearGradient id="prefix__prefix__paint1_linear_26_89" x1="321.392" y1="86.935" x2="191.02" y2="210.596"
            gradientUnits="userSpaceOnUse">
            <stop stop-color="#fff" />
            <stop offset="1" stop-color="#fff" stop-opacity="0" />
        </linearGradient>
        <linearGradient id="prefix__prefix__paint2_linear_26_89" x1="214.403" y1="114.472" x2="219.111" y2="232.747"
            gradientUnits="userSpaceOnUse">
            <stop stop-color="#fff" />
            <stop offset="1" stop-color="#fff" stop-opacity="0" />
        </linearGradient>
        <linearGradient id="prefix__prefix__paint3_linear_26_89" x1="197.549" y1="122.898" x2="202.256" y2="241.174"
            gradientUnits="userSpaceOnUse">
            <stop stop-color="#fff" />
            <stop offset="1" stop-color="#fff" stop-opacity="0" />
        </linearGradient>
        <linearGradient id="prefix__prefix__paint4_linear_26_89" x1="214.394" y1="205.873" x2="219.102" y2="324.148"
            gradientUnits="userSpaceOnUse">
            <stop stop-color="#fff" />
            <stop offset="1" stop-color="#fff" stop-opacity="0" />
        </linearGradient>
        <linearGradient id="prefix__prefix__paint5_linear_26_89" x1="197.54" y1="214.721" x2="202.248" y2="332.996"
            gradientUnits="userSpaceOnUse">
            <stop stop-color="#fff" />
            <stop offset="1" stop-color="#fff" stop-opacity="0" />
        </linearGradient>
        <linearGradient id="prefix__prefix__paint6_linear_26_89" x1="111.918" y1="31.32" x2="42.015" y2="152.427"
            gradientUnits="userSpaceOnUse">
            <stop stop-color="#fff" />
            <stop offset="1" stop-color="#fff" stop-opacity="0" />
        </linearGradient>
        <linearGradient id="prefix__prefix__paint7_linear_26_89" x1="128.794" y1="23.205" x2="107.424" y2="35.118"
            gradientUnits="userSpaceOnUse">
            <stop stop-color="#fff" />
            <stop offset="1" stop-color="#fff" stop-opacity="0" />
        </linearGradient>
        <linearGradient id="prefix__prefix__paint8_linear_26_89" x1="112.101" y1="316.488" x2="133.471" y2="304.575"
            gradientUnits="userSpaceOnUse">
            <stop stop-color="#fff" />
            <stop offset="1" stop-color="#fff" stop-opacity="0" />
        </linearGradient>
    </defs>
</svg>