<svg width="397" height="84" fill="none" xmlns="http://www.w3.org/2000/svg">
    <path
        d="M59.932 15.32L47.688 3.075A10.548 10.548 0 0040.261 0H10.5C4.7 0 0 4.7 0 10.5l.001 63c0 5.798 4.7 10.5 10.5 10.5H52.5C58.275 84 63 79.275 63 73.5V22.74c0-2.774-1.1-5.448-3.068-7.42zM55.125 73.5a2.625 2.625 0 01-2.625 2.625H10.503A2.625 2.625 0 017.878 73.5l-.003-62.979A2.625 2.625 0 0110.5 7.896h26.25V21A5.25 5.25 0 0042 26.25h12.977V73.5h.148zM15.75 45.937a3.939 3.939 0 003.938 3.938h23.625a3.928 3.928 0 003.937-3.938A3.928 3.928 0 0043.312 42H19.689a3.95 3.95 0 00-3.938 3.938zM43.313 57.75H19.686a3.95 3.95 0 00-3.937 3.938 3.944 3.944 0 003.938 3.937h23.625a3.939 3.939 0 000-7.875z"
        fill="#2F75DE" />
    <path
        d="M105.96 37h7.488l7.44-20.112V37h8.208V2.536h-10.704l-8.64 23.376-8.688-23.376H90.36V37h8.208V17.128L105.96 37zm52.333 0h9.792L155.461 2.536h-9.936L132.757 37h9.168l2.16-6.384h12.096L158.293 37zm-8.064-24.48l3.6 10.944h-7.296l3.696-10.944zM193.767 37h8.736V2.536h-8.304v19.92l-12.72-19.92h-9.744V37h8.304V15.496L193.767 37zm45.276-34.464h-9.072v20.88c0 3.6-1.296 6.192-5.856 6.192-4.608 0-5.904-2.592-5.904-6.192V2.536h-9.072v20.736c0 8.352 5.184 14.448 14.976 14.448 9.696 0 14.928-6.096 14.928-14.448V2.536zM266.668 37h9.792L263.836 2.536H253.9L241.132 37h9.168l2.16-6.384h12.096L266.668 37zm-8.064-24.48l3.6 10.944h-7.296l3.696-10.944zM303.678 37v-8.208h-14.496V2.536h-9.072V37h23.568zM99.432 83V48.536H90.36V83h9.072zm28.757 0h8.736V48.536h-8.304v19.92l-12.72-19.92h-9.744V83h8.304V61.496L128.189 83zm28.908-10.512c9.024 0 14.448-4.416 14.448-12.192 0-7.728-5.424-11.76-14.448-11.76h-13.44V83h9.072V72.488h4.368zm-.048-16.32c3.6 0 5.472 1.536 5.472 4.224 0 2.64-1.872 4.464-5.472 4.464h-4.32v-8.688h4.32zm48.9-7.632h-9.072v20.88c0 3.6-1.296 6.192-5.856 6.192-4.608 0-5.904-2.592-5.904-6.192v-20.88h-9.072v20.736c0 8.352 5.184 14.448 14.976 14.448 9.696 0 14.928-6.096 14.928-14.448V48.536zM229.555 83V56.744h10.56v-8.208h-30.192v8.208h10.56V83h9.072z"
        fill="#000" />
</svg>